<svg xmlns="http://www.w3.org/2000/svg" viewBox="0 0 800 500" role="img" aria-label="Check-in na portaria">
  <rect width="800" height="500" fill="#18181b"/>
  <rect x="200" y="80" width="400" height="340" rx="20" fill="#27272a"/>
  <rect x="320" y="120" width="160" height="160" rx="12" fill="#fff"/>
  <g fill="#18181b">
    <rect x="340" y="140" width="20" height="20"/><rect x="370" y="140" width="20" height="20"/><rect x="400" y="140" width="20" height="20"/><rect x="430" y="140" width="20" height="20"/>
    <rect x="340" y="170" width="20" height="20"/><rect x="400" y="170" width="20" height="20"/><rect x="430" y="170" width="20" height="20"/>
    <rect x="340" y="200" width="20" height="20"/><rect x="370" y="200" width="20" height="20"/><rect x="430" y="200" width="20" height="20"/>
    <rect x="340" y="230" width="20" height="20"/><rect x="370" y="230" width="20" height="20"/><rect x="400" y="230" width="20" height="20"/><rect x="430" y="230" width="20" height="20"/>
  </g>
  <circle cx="400" cy="360" r="28" fill="#10b981"/>
  <path d="M388 360l8 8 16-16" stroke="#fff" stroke-width="4" fill="none" stroke-linecap="round"/>
  <text x="400" y="430" text-anchor="middle" fill="#a1a1aa" font-family="system-ui,sans-serif" font-size="16">Acesso liberado</text>
</svg>
