<svg xmlns="http://www.w3.org/2000/svg" width="800" height="500" viewBox="0 0 800 500" role="img" aria-labelledby="title desc">
  <title id="title">Check-in por QR Code na portaria EventosBR</title>
  <desc id="desc">Mockup da tela de validaçăo de ingressos na portaria com leitura de QR Code</desc>
  <rect width="800" height="500" fill="#18181b" rx="16"/>
  <rect x="24" y="24" width="752" height="48" rx="10" fill="#27272a"/>
  <rect x="48" y="40" width="120" height="16" rx="4" fill="#34d399"/>
  <rect x="200" y="40" width="200" height="16" rx="4" fill="#71717a"/>
  <rect x="24" y="96" width="360" height="380" rx="12" fill="#27272a"/>
  <rect x="48" y="120" width="200" height="16" rx="4" fill="#fafafa"/>
  <rect x="48" y="152" width="280" height="220" rx="12" fill="#09090b" stroke="#3f3f46"/>
  <rect x="120" y="200" width="136" height="136" rx="8" fill="#fff" opacity="0.15"/>
  <rect x="136" y="216" width="104" height="104" rx="4" fill="#fff"/>
  <rect x="48" y="392" width="280" height="40" rx="8" fill="#047857"/>
  <rect x="408" y="96" width="368" height="120" rx="12" fill="#14532d"/>
  <circle cx="456" cy="156" r="24" fill="#22c55e"/>
  <path d="M448 156l6 6 14-14" stroke="#fff" stroke-width="3" fill="none" stroke-linecap="round"/>
  <rect x="496" y="136" width="180" height="18" rx="4" fill="#ecfdf5"/>
  <rect x="496" y="162" width="140" height="12" rx="3" fill="#86efac"/>
  <rect x="408" y="236" width="368" height="240" rx="12" fill="#27272a"/>
  <rect x="432" y="260" width="160" height="14" rx="3" fill="#a1a1aa"/>
  <rect x="432" y="290" width="320" height="48" rx="8" fill="#09090b" stroke="#3f3f46"/>
  <rect x="432" y="358" width="320" height="48" rx="8" fill="#09090b" stroke="#3f3f46"/>
  <rect x="432" y="426" width="320" height="32" rx="8" fill="#3f3f46"/>
</svg>
