<svg xmlns="http://www.w3.org/2000/svg" width="800" height="500" viewBox="0 0 800 500" role="img" aria-labelledby="title desc">
  <title id="title">Pßgina de evento EventosBR com vitrine e compra de ingressos</title>
  <desc id="desc">Mockup da interface EventosBR mostrando pßgina p·blica de evento com banner, detalhes e botŃo comprar ingresso</desc>
  <defs>
    <linearGradient id="bg" x1="0" y1="0" x2="1" y2="1">
      <stop offset="0%" stop-color="#ecfdf5"/>
      <stop offset="100%" stop-color="#f4f4f5"/>
    </linearGradient>
  </defs>
  <rect width="800" height="500" fill="url(#bg)" rx="16"/>
  <rect x="24" y="24" width="752" height="40" rx="8" fill="#fff" stroke="#e4e4e7"/>
  <rect x="40" y="36" width="90" height="16" rx="4" fill="#047857"/>
  <rect x="560" y="34" width="60" height="20" rx="6" fill="#f4f4f5"/>
  <rect x="640" y="34" width="60" height="20" rx="6" fill="#f4f4f5"/>
  <rect x="720" y="34" width="40" height="20" rx="6" fill="#047857"/>
  <rect x="24" y="80" width="752" height="180" rx="12" fill="#18181b"/>
  <rect x="48" y="280" width="420" height="28" rx="6" fill="#18181b"/>
  <rect x="48" y="320" width="280" height="16" rx="4" fill="#a1a1aa"/>
  <rect x="48" y="348" width="200" height="14" rx="4" fill="#d4d4d8"/>
  <rect x="48" y="380" width="120" height="36" rx="8" fill="#047857"/>
  <rect x="180" y="388" width="100" height="20" rx="4" fill="#fff" opacity="0.9"/>
  <rect x="520" y="280" width="256" height="196" rx="12" fill="#fff" stroke="#e4e4e7"/>
  <rect x="544" y="304" width="140" height="14" rx="4" fill="#18181b"/>
  <rect x="544" y="330" width="90" height="12" rx="3" fill="#a1a1aa"/>
  <rect x="544" y="360" width="208" height="40" rx="8" fill="#047857"/>
  <rect x="544" y="416" width="208" height="12" rx="3" fill="#d4d4d8"/>
  <rect x="544" y="436" width="160" height="12" rx="3" fill="#d4d4d8"/>
</svg>
