<svg xmlns="http://www.w3.org/2000/svg" width="800" height="500" viewBox="0 0 800 500" role="img" aria-labelledby="title desc">
  <title id="title">Checkout PIX EventosBR com QR Code e copia e cola</title>
  <desc id="desc">Mockup do painel de pagamento PIX na EventosBR com QR Code e confirmaçăo de pagamento</desc>
  <rect width="800" height="500" fill="#ecfdf5" rx="16"/>
  <rect x="160" y="40" width="480" height="420" rx="16" fill="#fff" stroke="#d1fae5"/>
  <rect x="192" y="72" width="180" height="18" rx="4" fill="#18181b"/>
  <rect x="192" y="100" width="120" height="12" rx="3" fill="#a1a1aa"/>
  <rect x="192" y="140" width="416" height="1" fill="#e4e4e7"/>
  <rect x="220" y="168" width="160" height="160" rx="8" fill="#f4f4f5" stroke="#d4d4d8"/>
  <rect x="248" y="196" width="104" height="104" rx="4" fill="#18181b" opacity="0.85"/>
  <rect x="404" y="168" width="180" height="14" rx="3" fill="#18181b"/>
  <rect x="404" y="192" width="140" height="12" rx="3" fill="#71717a"/>
  <rect x="404" y="220" width="204" height="36" rx="8" fill="#f4f4f5" stroke="#e4e4e7"/>
  <rect x="404" y="272" width="100" height="32" rx="8" fill="#047857"/>
  <rect x="192" y="360" width="416" height="56" rx="10" fill="#ecfdf5" stroke="#a7f3d0"/>
  <circle cx="220" cy="388" r="14" fill="#047857"/>
  <path d="M214 388l4 4 8-8" stroke="#fff" stroke-width="2" fill="none" stroke-linecap="round"/>
  <rect x="248" y="376" width="140" height="14" rx="3" fill="#065f46"/>
  <rect x="248" y="396" width="200" height="10" rx="3" fill="#6ee7b7"/>
</svg>
